#!OML:ASF F:\VICON\USERDATA\INSTALL\rory3\rory3.ASF
:FULLY-SPECIFIED
:DEGREES
289
root 0.94612 18.0181 22.608 -4.58037 -5.06929 -0.871766
lowerback 12.0701 1.36341 1.0543
upperback -0.0903864 2.02263 0.879578
thorax -6.87044 0.966934 -0.0263814
lowerneck -17.9288 -2.68116 -1.53364
upperneck 23.1544 -3.20643 -0.452475
head 10.3973 -1.66628 -0.357035
rclavicle 2.28602e-015 1.09332e-014
rhumerus -26.8196 -10.1236 -82.6134
rradius 30.3182
rwrist 3.46037
rhand -18.4121 25.3674
rfingers 7.12502
rthumb 7.87261 -4.46599
lclavicle 2.28602e-015 1.09332e-014
lhumerus -36.4354 4.15903 80.232
lradius 25.2075
lwrist 7.31536
lhand -25.2939 20.1405
lfingers 7.12502
lthumb 1.22775 50.1167
rfemur -16.7417 -0.148176 22.6908
rtibia 74.4096
rfoot -0.116049 -7.10252
rtoes 5.73255
lfemur -9.51233 -1.88689 -23.4698
ltibia 27.8924
lfoot -9.85251 0.0267606
ltoes 1.98385
290
root 0.946457 17.9995 22.767 -4.62749 -5.10062 -0.462987
lowerback 12.0964 1.34826 0.497717
upperback -0.0637249 1.92301 0.865881
thorax -6.87527 0.937103 0.29003
lowerneck -18.199 -2.63745 -1.52427
upperneck 23.497 -3.13921 -0.475036
head 10.573 -1.63643 -0.36498
rclavicle 7.12363e-015 1.47101e-014
rhumerus -27.1429 -10.0712 -82.5749
rradius 30.653
rwrist 2.99762
rhand -18.3399 25.1734
rfingers 7.12502
rthumb 7.94233 -4.65742
lclavicle 7.12363e-015 1.47101e-014
lhumerus -36.1493 3.43806 80.5426
lradius 25.4636
lwrist 8.3767
lhand -26.4763 18.398
lfingers 7.12502
lthumb 0.0857469 48.3777
rfemur -18.1335 -0.119739 22.2776
rtibia 74.5811
rfoot 0.111426 -6.87492
rtoes 9.12456
lfemur -8.91524 -1.89057 -24.0359
ltibia 27.8106
lfoot -10.2337 0.329575
ltoes 0.807109
291
root 0.947416 17.9991 22.931 -4.61582 -5.08764 -0.526936
lowerback 11.8407 1.24667 0.426806
upperback 0.040234 1.78387 1.00967
thorax -6.62688 0.875131 0.512976
lowerneck -18.2954 -2.59214 -1.60913
upperneck 23.692 -3.03204 -0.539015
head 10.6631 -1.60287 -0.361899
rclavicle 1.59897e-014 -4.17448e-015
rhumerus -27.2313 -10.0142 -82.4824
rradius 30.6734
rwrist 2.72793
rhand -18.4188 25.337
rfingers 7.12502
rthumb 7.86613 -4.49668
lclavicle 1.59897e-014 -4.17448e-015
lhumerus -35.884 2.81154 80.8602
lradius 25.8586
lwrist 9.28811
lhand -26.9802 18.4557
lfingers 7.12502
lthumb -0.400962 48.435
rfemur -19.3986 -0.0523637 22.435
rtibia 74.4221
rfoot 0.0827779 -6.9987
rtoes 10.0553
lfemur -8.34157 -2.05145 -24.0824
ltibia 27.7962
lfoot -10.5822 0.707945
ltoes 0.553866
292
root 0.952787 17.9947 23.1125 -4.74592 -4.91059 -0.588665
lowerback 11.5047 1.08729 0.500063
upperback 0.221542 1.58085 1.09108
thorax -6.24414 0.776015 0.600359
lowerneck -18.0226 -2.5615 -1.75458
upperneck 23.5163 -2.97997 -0.428749
head 10.5509 -1.57947 -0.284936
rclavicle 1.06847e-014 2.48481e-014
rhumerus -27.2373 -9.93632 -82.4352
rradius 30.537
rwrist 2.44106
rhand -18.5616 24.9035
rfingers 7.12502
rthumb 7.72826 -4.93532
lclavicle 1.06847e-014 2.48481e-014
lhumerus -35.4676 2.04507 81.0887
lradius 26.2264
lwrist 9.7335
lhand -26.4982 20.4168
lfingers 7.12502
lthumb 0.0645712 50.3966
rfemur -20.2565 -0.153311 22.5103
rtibia 74.0175
rfoot -1.30027 -6.75718
rtoes 9.10191
lfemur -7.52065 -2.31727 -24.1877
ltibia 27.8326
lfoot -11.1195 1.03898
ltoes 1.28314
293
root 0.96114 17.9834 23.2849 -4.85243 -4.75804 -0.589515
lowerback 11.5894 0.974255 0.576001
upperback 0.238321 1.44415 1.13341
thorax -6.27207 0.707226 0.623634
lowerneck -18.008 -2.53018 -1.85413
upperneck 23.5897 -2.94002 -0.306004
head 10.5787 -1.55521 -0.219354
rclavicle -5.28643e-015 3.18055e-015
rhumerus -27.5862 -9.78367 -82.3849
rradius 30.8509
rwrist 2.00053
rhand -18.8887 24.0109
rfingers 7.12502
rthumb 7.41257 -5.83923
lclavicle -5.28643e-015 3.18055e-015
lhumerus -35.0345 1.6316 81.0856
lradius 26.5967
lwrist 9.58095
lhand -25.6968 23.0183
lfingers 7.12502
lthumb 0.838631 52.9964
rfemur -21.1382 -0.206979 22.5076
rtibia 73.4306
rfoot -2.29539 -6.41009
rtoes 8.87518
lfemur -6.76711 -2.48713 -24.3588
ltibia 27.8817
lfoot -11.6508 1.31896
ltoes 1.18326
294
root 0.964622 17.9742 23.4436 -4.87967 -4.58979 -0.428602
lowerback 11.9649 0.86607 0.37633
upperback 0.0530302 1.28052 1.13534
thorax -6.68309 0.632582 0.759661
lowerneck -18.1949 -2.46372 -1.68579
upperneck 23.984 -2.82994 -0.549648
head 10.7517 -1.51988 -0.325339
rclavicle 3.37033e-014 2.54444e-014
rhumerus -28.2224 -9.80499 -82.2664
rradius 31.1713
rwrist 1.76518
rhand -19.132 23.9621
rfingers 7.12502
rthumb 7.17776 -5.8962
lclavicle 3.37033e-014 2.54444e-014
lhumerus -34.8695 1.13423 81.1087
lradius 26.8922
lwrist 9.48251
lhand -25.5518 24.3358
lfingers 7.12502
lthumb 0.978603 54.3133
rfemur -22.2032 -0.199144 22.3675
rtibia 72.7239
rfoot -3.24729 -6.09836
rtoes 8.41959
lfemur -6.17542 -2.58293 -24.6486
ltibia 27.9541
lfoot -12.2308 1.49567
ltoes 1.05265
295
root 0.964365 17.9603 23.602 -4.88094 -4.42327 -0.389878
lowerback 12.08 0.735757 0.231826
upperback -0.0329808 1.09443 1.20709
thorax -6.84142 0.547725 0.948088
lowerneck -17.9711 -2.50685 -1.67452
upperneck 23.9917 -2.86494 -0.68053
head 10.7093 -1.5521 -0.376155
rclavicle -3.65888e-015 1.59028e-014
rhumerus -28.431 -9.90264 -82.1105
rradius 30.8955
rwrist 1.80515
rhand -19.3107 24.0351
rfingers 7.12502
rthumb 7.00527 -5.82896
lclavicle -3.65888e-015 1.59028e-014
lhumerus -34.8434 -0.492143 81.8817
lradius 26.2542
lwrist 13.1409
lhand -30.6924 12.1302
lfingers 7.12502
lthumb -3.98605 42.0726
rfemur -23.2105 -0.159517 22.386
rtibia 71.8431
rfoot -4.46393 -6.05761
rtoes 7.51777
lfemur -5.65393 -2.66706 -24.7939
ltibia 28.0644
lfoot -12.771 1.70654
ltoes 0.690376
296
root 0.963916 17.944 23.7661 -4.97095 -4.1893 -0.395171
lowerback 12.0031 0.597836 0.175234
upperback 0.0825544 0.906062 1.28402
thorax -6.67431 0.458589 1.09548
lowerneck -17.5411 -2.54368 -1.81803
upperneck 23.5931 -2.90526 -0.598201
head 10.4849 -1.57411 -0.318027
rclavicle 1.1486e-014 2.0276e-014
rhumerus -28.1154 -10.3804 -81.924
rradius 30.2278
rwrist 2.26481
rhand -19.5561 24.1091
rfingers 7.12502
rthumb 6.76836 -5.76267
lclavicle 1.1486e-014 2.0276e-014
lhumerus -34.2925 -0.241551 81.4067
lradius 27.421
lwrist 8.8729
lhand -25.9613 24.1277
lfingers 7.12502
lthumb 0.583114 54.1066
rfemur -23.9896 -0.205696 22.4266
rtibia 70.7871
rfoot -5.85329 -6.06028
rtoes 6.4373
lfemur -5.02696 -2.68552 -24.8918
ltibia 28.1623
lfoot -13.2715 1.77703
ltoes 0.0291201
297
root 0.963855 17.9327 23.9342 -5.08036 -3.98757 -0.387007
lowerback 12.0263 0.503791 0.123433
upperback 0.171743 0.77773 1.35721
thorax -6.59198 0.39837 1.2244
lowerneck -17.3396 -2.55444 -1.99351
upperneck 23.3649 -2.9153 -0.439754
head 10.3693 -1.5753 -0.228701
rclavicle -4.96962e-015 1.98785e-015
rhumerus -28.0373 -10.8176 -81.6828
rradius 29.8957
rwrist 2.5482
rhand -19.5601 23.8793
rfingers 7.12502
rthumb 6.76446 -5.99264
lclavicle -4.96962e-015 1.98785e-015
lhumerus -33.996 -1.51889 81.9036
lradius 27.4305
lwrist 11.1732
lhand -28.2979 18.4574
lfingers 7.12502
lthumb -1.67363 48.4306
rfemur -24.6452 -0.255219 22.4594
rtibia 69.5324
rfoot -6.96043 -6.07314
rtoes 5.44949
lfemur -4.34619 -2.6521 -24.9961
ltibia 28.2544
lfoot -13.8052 1.9
ltoes -0.860587
298
root 0.959044 17.9222 24.097 -5.08656 -3.86037 -0.339306
lowerback 12.1567 0.423782 -0.0682579
upperback 0.126645 0.650887 1.42496
thorax -6.71371 0.344114 1.42626
lowerneck -17.4853 -2.49716 -1.88589
upperneck 23.58 -2.82216 -0.596355
head 10.4704 -1.54221 -0.293421
rclavicle -1.8108e-015 -1.07344e-014
rhumerus -28.4916 -10.6455 -81.5917
rradius 30.3091
rwrist 2.17291
rhand -19.3999 23.5927
rfingers 7.12502
rthumb 6.9191 -6.27419
lclavicle -1.8108e-015 -1.07344e-014
lhumerus -33.6239 -1.88758 81.773
lradius 28.0254
lwrist 9.76489
lhand -27.0492 22.0607
lfingers 7.12502
lthumb -0.467631 52.04
rfemur -25.4293 -0.239441 22.5016
rtibia 68.1254
rfoot -7.71836 -6.23107
rtoes 3.40111
lfemur -3.78003 -2.69549 -25.1162
ltibia 28.2738
lfoot -14.3322 1.98866
ltoes 0.0104881
299
root 0.95581 17.9109 24.2579 -5.06752 -3.68214 -0.289765
lowerback 12.3373 0.274288 -0.251609
upperback 0.0311621 0.431802 1.47271
thorax -6.91323 0.245223 1.62001
lowerneck -17.7831 -2.41853 -1.78006
upperneck 24.0518 -2.72235 -0.654372
head 10.6971 -1.49462 -0.326691
rclavicle 3.06253e-015 1.78906e-014
rhumerus -28.9151 -10.4694 -81.5517
rradius 30.575
rwrist 1.86258
rhand -19.3052 23.6631
rfingers 7.12502
rthumb 7.01053 -6.20079
lclavicle 3.06253e-015 1.78906e-014
lhumerus -33.3474 -2.23583 81.5936
lradius 28.5241
lwrist 9.12765
lhand -26.2225 23.3199
lfingers 7.12502
lthumb 0.330819 53.2994
rfemur -26.2119 -0.241437 22.5161
rtibia 66.5866
rfoot -8.54676 -6.45463
rtoes 1.24673
lfemur -3.13707 -2.79523 -25.2611
ltibia 28.1266
lfoot -14.7981 2.17476
ltoes 0.132925
300
root 0.953292 17.8989 24.4239 -5.02374 -3.48803 -0.165084
lowerback 12.3585 0.153497 -0.467105
upperback 0.00411868 0.244092 1.52118
thorax -6.94945 0.162191 1.82755
lowerneck -17.9037 -2.38343 -1.86116
upperneck 24.2001 -2.64896 -0.644798
head 10.7763 -1.46766 -0.302351
rclavicle 7.39541e-015 3.97569e-016
rhumerus -28.9425 -10.8011 -81.3096
rradius 30.2011
rwrist 2.23334
rhand -19.3705 23.8778
rfingers 7.12502
rthumb 6.94748 -5.98821
lclavicle 7.39541e-015 3.97569e-016
lhumerus -33.0259 -2.62261 81.6016
lradius 29.0287
lwrist 9.19789
lhand -26.7918 23.5276
lfingers 7.12502
lthumb -0.219032 53.5072
rfemur -26.9313 -0.26254 22.4052
rtibia 64.9166
rfoot -9.73683 -6.82258
rtoes -3.44989
lfemur -2.41747 -2.80443 -25.4618
ltibia 27.8507
lfoot -15.1589 2.16167
ltoes 0.378014
301
root 0.95282 17.8851 24.5852 -5.00359 -3.24572 0.2345
lowerback 12.405 0.0913071 -0.82203
upperback 0.0123717 0.102583 1.41347
thorax -6.96229 0.103436 1.94036
lowerneck -17.6737 -2.43375 -2.02117
upperneck 23.903 -2.73065 -0.447762
head 10.6289 -1.4951 -0.210732
rclavicle -2.17421e-015 5.96354e-015
rhumerus -29.0715 -11.1265 -81.1586
rradius 30.1555
rwrist 2.31975
rhand -19.2776 23.6958
rfingers 7.12502
rthumb 7.0372 -6.16725
lclavicle -2.17421e-015 5.96354e-015
lhumerus -32.6354 -3.47151 81.6391
lradius 29.5637
lwrist 9.41683
lhand -27.7265 20.9792
lfingers 7.12502
lthumb -1.12173 50.956
rfemur -27.6036 -0.328285 21.9485
rtibia 63.1226
rfoot -10.4652 -7.17021
rtoes -7.39254
lfemur -1.59791 -2.84079 -25.9825
ltibia 27.3692
lfoot -15.4497 2.18428
ltoes 0.0123885
302
root 0.947192 17.8764 24.7489 -4.99097 -3.02905 0.530414
lowerback 12.424 0.0296193 -1.17682
upperback 0.0121586 -0.0345044 1.3608
thorax -6.96773 0.0478519 2.11061
lowerneck -17.5945 -2.47959 -2.12234
upperneck 23.9209 -2.80472 -0.311842
head 10.6248 -1.52178 -0.154926
rclavicle 1.4971e-015 -3.97569e-015
rhumerus -29.4496 -11.075 -81.1035
rradius 30.4845
rwrist 2.00739
rhand -19.2272 23.3809
rfingers 7.12502
rthumb 7.08584 -6.48052
lclavicle 1.4971e-015 -3.97569e-015
lhumerus -32.209 -4.48933 81.6884
lradius 29.7418
lwrist 9.74708
lhand -28.4347 16.7435
lfingers 7.12502
lthumb -1.80573 46.7156
rfemur -28.1234 -0.279129 21.6326
rtibia 61.1417
rfoot -10.4383 -7.53545
rtoes -5.54063
lfemur -0.65826 -2.93441 -26.3759
ltibia 26.6469
lfoot -15.7256 2.23663
ltoes 0.32322
303
root 0.944931 17.8726 24.9264 -5.06266 -2.84829 0.79957
lowerback 12.279 -0.0637536 -1.49914
upperback 0.102069 -0.206213 1.33176
thorax -6.78147 -0.0284901 2.29123
lowerneck -17.8576 -2.4407 -2.05707
upperneck 24.1843 -2.74745 -0.372759
head 10.7699 -1.49712 -0.185399
rclavicle 1.36664e-015 -1.70955e-014
rhumerus -29.7109 -11.1892 -81.0101
rradius 30.6992
rwrist 2.15594
rhand -19.0964 22.739
rfingers 7.12502
rthumb 7.2121 -7.11809
lclavicle 1.36664e-015 -1.70955e-014
lhumerus -31.7624 -5.14334 81.6568
lradius 29.882
lwrist 10.0001
lhand -27.2936 21.1417
lfingers 7.12502
lthumb -0.703681 51.1202
rfemur -28.3526 -0.239093 21.3355
rtibia 58.953
rfoot -10.3776 -8.07341
rtoes -3.48747
lfemur 0.472514 -3.01559 -26.7729
ltibia 25.8618
lfoot -15.9728 2.3527
ltoes 0.281895
